<svg xmlns="http://www.w3.org/2000/svg" width="840.969" height="222.5" viewBox="0 0 840.969 222.5">
  <defs>
    <style>
      .cls-1 {
        fill: #020202;
        fill-rule: evenodd;
      }
    </style>
  </defs>
  <path id="mei_jie" data-name="mei jie" class="cls-1" d="M170.977,45.818h2.49l2.2,2.49,5.859-9.961,0.44-4.981h-4.981Zm-91.7-4.98h-2.49l-2.344-2.49h-2.49l-0.586,7.471,2.2,2.49h2.49l2.783-2.49-0.586,7.471L69.17,70.721l2.344,2.49-0.733,7.471h-2.49l0.44-4.98H66.24l-0.293,2.49,1.758,9.961-3.369,9.961L64.043,100.6l2.344,2.49H63.9q-11.282,44.093-14.649,82.177l-0.293,2.491,2.2,2.49-2.637,2.49L47.49,205.193l0.146,27.393-3.662,12.451,16.846,7.471h2.49l13.477-12.451q0.731-7.471,5.713-7.471L87.188,177.8,85.869,165.35l3.076-7.471L90.7,137.957l5.127-29.883h2.49q-1.026,11.426,11.719,37.354,1.319,22.411,7.91,22.412l11.28,12.451h2.49q10.691-6.3,11.718-19.922h4.981l-0.586,7.471-5.42,4.98,2.344,2.491-0.293,2.49-2.783,2.49-0.147,2.49h2.49q10.4-5.418,11.719-19.922,14.795-41.748,27.246-54.785l-16.845,107.08,3.662,14.942L166,245.037,180.059,255h7.47q1.172-12.451,8.643-12.451,0.584-7.471,8.057-7.471l6.152-69.726-2.344-2.491h2.49l2.637-2.49-4.394-4.98,5.273-4.981-4.4-4.98,5.274-4.981,0.293-2.49-2.344-2.49L213.6,128l4.833-27.392-3.662-14.942h4.981l0.879-9.961-2.2-2.49,2.637-2.49,0.733-7.471q-14.65-24.9-25.342-24.9l-0.147,2.49-7.031-4.98q-7.47,0-46.582,77.2h-4.98l35.3-62.256,0.147-2.49h-2.49l-2.637,2.49-34.424,52.3Q124.4,50.8,115.752,50.8q-5.569-9.96-18.9-12.451l-0.147,2.49-7.031-4.98H84.7ZM185.771,75.7l-3.515,12.451q-29.739,53.908-30.762,67.237H149l-1.9-7.471Q167.167,98.847,185.771,75.7h0Zm8.2,19.922-0.147,2.49-2.783,2.491-0.147,2.49,2.2,2.49h-2.491l2.344,2.49-7.178,52.3h-2.49l5.567-62.256,2.636-2.49h2.491Zm-16.26,129.492,1.9,7.471-3.662,12.451h-2.49l1.758-19.922h2.49ZM272.93,38.494l-7.471-.586-2.637,2.344-2.343-2.49-2.491-.293-2.636,2.344-2.344-2.637-2.49-.293-0.44,7.471-3.955,22.266,1.611,12.6-0.293,4.98-2.49-.147-2.344-2.637-5.42,42.041-0.146,2.49,2.344,2.637-5.713,12.012,2.49,0.146-7.91,42.041-0.293,4.981,2.49,0.146,0.293-4.98,2.49,0.146-0.439,7.324,2.49,0.293,1.026-14.941-2.491-.146-2.783,2.343,3.369-12.3,4.981,0.439-1.758,24.756,2.344,2.783q-4.4-.44-5.86,12.012l-2.49-.293,0.879-12.451-4.98-.147,2.343,2.637-6.884,26.953-0.44,7.471v0.439q0,5.126,12.012,7.764l2.49,0.146L352.91,221.16l0.44-4.98-19.922-1.319,0.146-2.49q23.292,1.465,30.469-7.91l0.439-7.471-2.2-2.636,4.981,0.292,0.146-4.98L355.254,186.3q-30.762-2.05-105.322,7.91l4.834-34.57,2.49,0.146L255.791,182.2h2.49l12.012-31.64-2.344-2.491L293,147.186q66.061-8.641,71.484-22.559l0.147-2.49-17.139-3.809v-2.49l4.981,0.439,0.146-2.49-2.2-2.637-67.676,5.42-2.49-.146L284.8,84.2l57.861-6.006L342.8,75.7l-4.981-.439-17.578,1.465-2.49-.147L315.41,73.8l-15.088,1.465-12.3-.879,0.293-4.981,65.039-2.93q13.767,0.879,19.043-21.24l-12.012-8.35Zm-34.717,107.52L237.041,163.3l-2.49-.147,1.172-17.431Zm56.982,6.3,0.147-2.491-22.559,1.026-0.146,2.343,2.343,2.784,45.118-4.541,0.293-2.491H317.9ZM401.836,40.252l-0.147,2.49,2.344,2.49L403.3,60.174l-2.637,2.49h2.49l-10.107,47.315,2.344,2.49-0.147,2.49h-4.98l-0.147,2.49,2.344,2.49-0.586,9.961-5.42,7.471-2.49,44.824-4.541,37.354,9.521,9.961-3.515,17.431,12.011,4.981H407.4q0.584-8.789,13.916-24.9l0.293-4.981-1.465-17.432,2.637-2.49h-2.49l2.637-2.49,0.146-2.49-2.49-2.491,0.879-14.941q3.955-69.286,21.826-122.021H440.8l2.636-2.49L438.9,45.232q-9.963,0-9.375-7.471Zm2.637,42.334-0.879,17.432H401.1l0.878-17.432h2.491Zm-3.809,24.9-0.879,14.942H397.3l0.879-14.942h2.49ZM396.855,129.9l-0.732,14.942h-2.49l0.732-14.942h2.49Zm2.051,99.61-0.586,7.47-5.127,4.981,0.733-12.451h4.98ZM635.039,32.488l-2.49,2.49-2.49,14.941Q613.211,191.571,602.08,191.57H597.1l-2.491-2.49-7.47,22.412q-5.861,0-7.471-14.941V189.08l2.49-17.432q-7.47,0-7.471-7.47h-4.98l-2.49,2.49v2.49l2.49,2.49v4.981h-4.98l-2.491-14.941h-9.961q-8.205,7.47-14.941,7.47l-4.98,14.942q3.807,0,4.98,32.373v2.49h-7.471l-2.49-2.49v7.47l17.432,7.471q0,22.411,24.9,22.412v-2.49l2.49,2.49,12.451-2.49h2.491l2.49,2.49q24.9-7.47,24.9-12.451,26.367,0,50.391-203.906h-9.961V44.94H647.49V32.488H635.039ZM604.57,159.2h2.491v-9.961H604.57V159.2ZM597.1,186.59v2.49l7.47-2.49v-4.981l-2.49,2.491h-2.49l4.98-4.981v-2.49l-2.49-2.49q7.471,0,7.471-4.981-4.981,0-4.981-7.47h-2.49Zm-57.276-14.942V184.1h-2.49V171.648h2.49ZM693.34,40.252l-0.147,2.49,2.344,2.49-0.732,14.941-2.637,2.49h2.49l-10.107,47.315,2.344,2.49-0.147,2.49h-4.98l-0.147,2.49,2.344,2.49-0.586,9.961-5.42,7.471-2.49,44.824-4.541,37.354,9.521,9.961-3.515,17.431,12.011,4.981h9.961q0.583-8.789,13.916-24.9l0.293-4.981-1.465-17.432,2.637-2.49H711.8l2.637-2.49,0.146-2.49-2.49-2.491,0.879-14.941q3.954-69.286,21.826-122.021h-2.49l2.636-2.49L730.4,45.232q-9.963,0-9.375-7.471Zm2.637,42.334L695.1,100.018h-2.491l0.879-17.432h2.491Zm-3.809,24.9-0.879,14.942H688.8l0.879-14.942h2.49ZM688.359,129.9l-0.732,14.942h-2.49l0.732-14.942h2.49Zm2.051,99.61-0.586,7.47-5.127,4.981,0.733-12.451h4.98ZM785.479,38.494l-7.471-.586-2.637,2.344-2.344-2.49-2.49-.293L767.9,39.813l-2.343-2.637-2.491-.293-0.439,7.471-3.955,22.266,1.611,12.6L759.99,84.2l-2.49-.147-2.344-2.637-5.42,42.041-0.146,2.49,2.344,2.637-5.713,12.012,2.49,0.146-7.91,42.041-0.293,4.981,2.49,0.146,0.293-4.98,2.49,0.146-0.439,7.324,2.49,0.293,1.025-14.941-2.49-.146-2.783,2.343,3.369-12.3,4.981,0.439-1.758,24.756,2.344,2.783q-4.395-.44-5.86,12.012l-2.49-.293,0.879-12.451-4.981-.147,2.344,2.637-6.885,26.953-0.439,7.471v0.439q0,5.126,12.012,7.764l2.49,0.146L865.459,221.16l0.439-4.98-19.921-1.319,0.146-2.49q23.29,1.465,30.469-7.91l0.439-7.471-2.2-2.636,4.98,0.292,0.147-4.98L867.8,186.3q-30.762-2.05-105.323,7.91l4.834-34.57,2.491,0.146L768.34,182.2h2.49l12.012-31.64-2.344-2.491,25.049-.878q66.061-8.641,71.484-22.559l0.147-2.49-17.139-3.809v-2.49l4.981,0.439,0.146-2.49-2.2-2.637-67.676,5.42-2.49-.146L797.344,84.2l57.861-6.006,0.147-2.49-4.981-.439-17.578,1.465-2.49-.147L827.959,73.8l-15.088,1.465-12.3-.879,0.293-4.981,65.039-2.93q13.769,0.879,19.043-21.24l-12.011-8.35Zm-34.717,107.52L749.59,163.3l-2.49-.147,1.171-17.431Zm56.982,6.3,0.147-2.491-22.559,1.026-0.146,2.343,2.343,2.784,45.117-4.541,0.293-2.491h-2.49Z" transform="translate(-43.969 -32.5)"/>
</svg>
