<?xml version="1.0" encoding="utf-8"?>
<!-- Generator: Adobe Illustrator 23.0.0, SVG Export Plug-In . SVG Version: 6.00 Build 0)  -->
<svg version="1.1" id="图层_1" xmlns="http://www.w3.org/2000/svg" xmlns:xlink="http://www.w3.org/1999/xlink" x="0px" y="0px"
	 viewBox="0 0 340.1 340.1" style="enable-background:new 0 0 340.1 340.1;" xml:space="preserve">
<style type="text/css">
	.st0{fill:#0F9F70;}
	.st1{fill:#FFFFFF;}
	.st2{fill:#E4E5E4;}
	.st3{fill:#767777;}
</style>
<path class="st0" d="M0,0h339.8v339.8H0V0z"/>
<path class="st1" d="M244.1,340.1c-49.3,0-98.6,0-147.8,0c0-52.6,0-105.3,0-157.9c0-13,0-26.1,0-39.1c-0.1-4.6-0.2-9.1-0.2-13.7
	c0.1,0,0.2,0,0.2,0c0-0.6,0-1.1,0-1.7c0.3-0.9,0.6-1.8,1-2.6c0.2-0.1,0.3-0.2,0.5-0.2c0.1-0.3,0.2-0.6,0.2-1
	c0.2-0.1,0.3-0.2,0.5-0.2c0-0.2,0-0.3,0-0.5c0.2-0.2,0.5-0.3,0.7-0.5c0-0.2,0-0.3,0-0.5c0.5-0.4,1-0.8,1.4-1.2
	c0.6-0.6,1.1-1.3,1.7-1.9c0.2,0,0.3,0,0.5,0c0.2-0.2,0.3-0.5,0.5-0.7c0.2,0,0.3,0,0.5,0c0.1-0.2,0.2-0.3,0.2-0.5
	c0.3-0.1,0.6-0.2,1-0.2c0-0.1,0-0.2,0-0.2c0.5-0.2,1-0.3,1.4-0.5c0-0.1,0-0.2,0-0.2c0.2,0,0.5,0,0.7,0c0-0.1,0-0.2,0-0.2
	c0.2,0,0.5,0,0.7,0c0-0.1,0-0.2,0-0.2c0.2,0,0.5,0,0.7,0c0-0.1,0-0.2,0-0.2c0.3,0,0.6,0,1,0c0-0.1,0-0.2,0-0.2c0.3,0,0.6,0,1,0
	c0-0.1,0-0.2,0-0.2c1.1-0.1,2.2-0.2,3.4-0.2c1.2-0.3,3.2,0.1,4.6-0.2c0-0.1,0-0.2,0-0.2c3.4,0.1,6.7,0.2,10.1,0.2
	c17.2,0,34.4,0,51.6,0c12.5,0,25,0,37.4,0c3.6,0,7.2,0,10.8,0c1.5,0,3.6-0.3,4.8,0.2c0,0.1,0,0.2,0,0.2c0.5,0.2,1,0.3,1.4,0.5
	c0,0.1,0,0.2,0,0.2c0.3,0.1,0.6,0.2,1,0.2c0.1,0.2,0.2,0.3,0.2,0.5c0.2,0,0.3,0,0.5,0c0.1,0.2,0.2,0.3,0.2,0.5c0.2,0,0.3,0,0.5,0
	c0.5,0.6,1,1.1,1.4,1.7c0.3,0.2,0.6,0.5,1,0.7c0,0.2,0,0.3,0,0.5c0.2,0.1,0.3,0.2,0.5,0.2c0.1,0.2,0.2,0.5,0.2,0.7
	c0.1,0,0.2,0,0.2,0c0,0.2,0,0.3,0,0.5c0.2,0.1,0.3,0.2,0.5,0.2c0.1,0.3,0.2,0.6,0.2,1c0.1,0,0.2,0,0.2,0c0.1,0.3,0.2,0.6,0.2,1
	c0.1,0,0.2,0,0.2,0c0.1,0.4,0.2,0.8,0.2,1.2c0.1,0,0.2,0,0.2,0c0.2,0.7,0.3,1.4,0.5,2.2c0.1,0,0.2,0,0.2,0c0.2,1,0.3,1.9,0.5,2.9
	c0.1,0,0.2,0,0.2,0c0,0.5,0,1,0,1.4c0.1,0,0.2,0,0.2,0c0,0.5,0,1,0,1.4c0.1,0,0.2,0,0.2,0c0,0.6,0,1.1,0,1.7c0.1,0,0.2,0,0.2,0
	c0.1,2.5,0.2,5,0.2,7.4c0.7,2.6,0,6.7,0,9.4c-0.2,7.3-0.3,14.6-0.5,21.8C244.1,228.9,244.1,284.5,244.1,340.1z"/>
<path class="st2" d="M96.2,221c49.3,0,98.6,0,147.8,0c0,0.2,0,0.3,0,0.5c-49.3,0-98.6,0-147.8,0C96.2,221.4,96.2,221.2,96.2,221z"/>
<path class="st2" d="M96.5,146.5c49.3,0,98.6,0,147.8,0c0,0.2,0,0.3,0,0.5c-49.3,0-98.6,0-147.8,0C96.5,146.9,96.5,146.7,96.5,146.5
	z"/>
<path class="st2" d="M107.3,307.9h28.1V336h-28.1V307.9z"/>
<path class="st2" d="M145,307.9c29.3,0,58.6,0,87.8,0c0,4.2,0,8.3,0,12.5c-29.3,0-58.6,0-87.8,0C145,316.2,145,312.1,145,307.9z"/>
<path class="st2" d="M145,324.5c14.5,0,29,0,43.4,0c0,2.6,0,5.1,0,7.7c-14.5,0-29,0-43.4,0C145,329.6,145,327,145,324.5z"/>
<path class="st2" d="M107.3,269.8h28.1v28.1h-28.1V269.8z"/>
<path class="st2" d="M145,269.8c29.3,0,58.6,0,87.8,0c0,4.2,0,8.3,0,12.5c-29.3,0-58.6,0-87.8,0C145,278.1,145,273.9,145,269.8z"/>
<path class="st2" d="M145,286.3c14.5,0,29,0,43.4,0c0,2.6,0,5.1,0,7.7c-14.5,0-29,0-43.4,0C145,291.4,145,288.9,145,286.3z"/>
<path class="st2" d="M145,231.6c29.3,0,58.6,0,87.8,0c0,4.2,0,8.3,0,12.5c-29.3,0-58.6,0-87.8,0C145,239.9,145,235.8,145,231.6z"/>
<path class="st2" d="M145,248.2c14.5,0,29,0,43.4,0c0,2.6,0,5.1,0,7.7c-14.5,0-29,0-43.4,0C145,253.3,145,250.7,145,248.2z"/>
<path class="st2" d="M107.3,231.6h28.1v28.1h-28.1V231.6z"/>
<path class="st2" d="M177.6,175.7c6.5,0,13,0,19.4,0c0,1.2,0,2.4,0,3.6c-6.5,0-13,0-19.4,0C177.6,178.1,177.6,176.9,177.6,175.7z"/>
<path class="st2" d="M150.7,154.3c4.8-0.1,7.2,1.3,9.1,4.1c0.2,0.1,0.3,0.2,0.5,0.2c0.2,0.5,0.3,1,0.5,1.4c0.1,0,0.2,0,0.2,0
	c0,0.2,0,0.3,0,0.5c0.1,0,0.2,0,0.2,0c0,0.2,0,0.5,0,0.7c0.6,1.6,0.6,3.6,0,5.3c0,0.2,0,0.5,0,0.7c-0.1,0-0.2,0-0.2,0
	c0,0.2,0,0.3,0,0.5c-0.1,0-0.2,0-0.2,0c-0.2,0.5-0.3,1-0.5,1.4c-0.2,0.1-0.3,0.2-0.5,0.2c0,0.2,0,0.3,0,0.5
	c-0.2,0.2-0.5,0.3-0.7,0.5c-0.3,0.4-0.6,0.8-1,1.2c-0.2,0-0.3,0-0.5,0c-0.1,0.2-0.2,0.3-0.2,0.5c-0.2,0-0.3,0-0.5,0
	c0,0.1,0,0.2,0,0.2c-0.5,0.2-1,0.3-1.4,0.5c0,0.1,0,0.2,0,0.2c-0.2,0-0.5,0-0.7,0c0,0.1,0,0.2,0,0.2c-0.4,0-0.8,0-1.2,0
	c0,0.1,0,0.2,0,0.2c-1.1,0.3-4.1-0.2-4.8-0.5c0-0.1,0-0.2,0-0.2c-0.2,0-0.3,0-0.5,0c0-0.1,0-0.2,0-0.2c-0.5-0.2-1-0.3-1.4-0.5
	c-0.1-0.2-0.2-0.3-0.2-0.5c-0.2,0-0.3,0-0.5,0c-0.2-0.2-0.3-0.5-0.5-0.7c-0.4-0.3-0.8-0.6-1.2-1c0-0.2,0-0.3,0-0.5
	c-0.2-0.1-0.3-0.2-0.5-0.2c0-0.2,0-0.3,0-0.5c-0.1,0-0.2,0-0.2,0c-0.2-0.5-0.3-1-0.5-1.4c-0.1,0-0.2,0-0.2,0
	c-0.3-0.7-0.8-3.7-0.5-4.8c0.1,0,0.2,0,0.2,0c0.1-0.6,0.2-1.3,0.2-1.9c0.1,0,0.2,0,0.2,0c0-0.2,0-0.3,0-0.5c0.1,0,0.2,0,0.2,0
	c0.2-0.5,0.3-1,0.5-1.4c0.2-0.1,0.3-0.2,0.5-0.2c0-0.2,0-0.3,0-0.5c0.5-0.4,1-0.8,1.4-1.2c0.1-0.2,0.2-0.3,0.2-0.5
	c0.2,0,0.3,0,0.5,0c0.1-0.2,0.2-0.3,0.2-0.5c0.2,0,0.3,0,0.5,0c0-0.1,0-0.2,0-0.2c0.5-0.2,1-0.3,1.4-0.5c0-0.1,0-0.2,0-0.2
	c0.2,0,0.5,0,0.7,0c0-0.1,0-0.2,0-0.2c0.4,0,0.8,0,1.2,0C150.7,154.5,150.7,154.4,150.7,154.3z"/>
<path class="st2" d="M115.4,155c4.8-0.1,7.2,1.3,9.1,4.1c0.2,0.1,0.3,0.2,0.5,0.2c0.2,0.5,0.3,1,0.5,1.4c0.1,0,0.2,0,0.2,0
	c0,0.2,0,0.3,0,0.5c0.1,0,0.2,0,0.2,0c0,0.2,0,0.5,0,0.7c0.6,1.6,0.6,3.6,0,5.3c0,0.2,0,0.5,0,0.7c-0.1,0-0.2,0-0.2,0
	c0,0.2,0,0.3,0,0.5c-0.1,0-0.2,0-0.2,0c-0.2,0.5-0.3,1-0.5,1.4c-0.2,0.1-0.3,0.2-0.5,0.2c0,0.2,0,0.3,0,0.5
	c-0.2,0.2-0.5,0.3-0.7,0.5c-0.3,0.4-0.6,0.8-1,1.2c-0.2,0-0.3,0-0.5,0c-0.1,0.2-0.2,0.3-0.2,0.5c-0.2,0-0.3,0-0.5,0
	c0,0.1,0,0.2,0,0.2c-0.5,0.2-1,0.3-1.4,0.5c0,0.1,0,0.2,0,0.2c-0.2,0-0.5,0-0.7,0c0,0.1,0,0.2,0,0.2c-0.4,0-0.8,0-1.2,0
	c0,0.1,0,0.2,0,0.2c-1.1,0.3-4.1-0.2-4.8-0.5c0-0.1,0-0.2,0-0.2c-0.2,0-0.3,0-0.5,0c0-0.1,0-0.2,0-0.2c-0.5-0.2-1-0.3-1.4-0.5
	c-0.1-0.2-0.2-0.3-0.2-0.5c-0.2,0-0.3,0-0.5,0c-0.2-0.2-0.3-0.5-0.5-0.7c-0.4-0.3-0.8-0.6-1.2-1c0-0.2,0-0.3,0-0.5
	c-0.2-0.1-0.3-0.2-0.5-0.2c0-0.2,0-0.3,0-0.5c-0.1,0-0.2,0-0.2,0c-0.2-0.5-0.3-1-0.5-1.4c-0.1,0-0.2,0-0.2,0
	c-0.3-0.7-0.8-3.7-0.5-4.8c0.1,0,0.2,0,0.2,0c0.1-0.6,0.2-1.3,0.2-1.9c0.1,0,0.2,0,0.2,0c0-0.2,0-0.3,0-0.5c0.1,0,0.2,0,0.2,0
	c0.2-0.5,0.3-1,0.5-1.4c0.2-0.1,0.3-0.2,0.5-0.2c0-0.2,0-0.3,0-0.5c0.5-0.4,1-0.8,1.4-1.2c0.1-0.2,0.2-0.3,0.2-0.5
	c0.2,0,0.3,0,0.5,0c0.1-0.2,0.2-0.3,0.2-0.5c0.2,0,0.3,0,0.5,0c0-0.1,0-0.2,0-0.2c0.5-0.2,1-0.3,1.4-0.5c0-0.1,0-0.2,0-0.2
	c0.2,0,0.5,0,0.7,0c0-0.1,0-0.2,0-0.2c0.4,0,0.8,0,1.2,0C115.4,155.2,115.4,155.1,115.4,155z"/>
<path class="st2" d="M186.2,155c4.8-0.1,7.2,1.3,9.1,4.1c0.2,0.1,0.3,0.2,0.5,0.2c0.2,0.5,0.3,1,0.5,1.4c0.1,0,0.2,0,0.2,0
	c0,0.2,0,0.3,0,0.5c0.1,0,0.2,0,0.2,0c0,0.2,0,0.5,0,0.7c0.6,1.6,0.6,3.6,0,5.3c0,0.2,0,0.5,0,0.7c-0.1,0-0.2,0-0.2,0
	c0,0.2,0,0.3,0,0.5c-0.1,0-0.2,0-0.2,0c-0.2,0.5-0.3,1-0.5,1.4c-0.2,0.1-0.3,0.2-0.5,0.2c0,0.2,0,0.3,0,0.5
	c-0.2,0.2-0.5,0.3-0.7,0.5c-0.3,0.4-0.6,0.8-1,1.2c-0.2,0-0.3,0-0.5,0c-0.1,0.2-0.2,0.3-0.2,0.5c-0.2,0-0.3,0-0.5,0
	c0,0.1,0,0.2,0,0.2c-0.5,0.2-1,0.3-1.4,0.5c0,0.1,0,0.2,0,0.2c-0.2,0-0.5,0-0.7,0c0,0.1,0,0.2,0,0.2c-0.4,0-0.8,0-1.2,0
	c0,0.1,0,0.2,0,0.2c-1.1,0.3-4.1-0.2-4.8-0.5c0-0.1,0-0.2,0-0.2c-0.2,0-0.3,0-0.5,0c0-0.1,0-0.2,0-0.2c-0.5-0.2-1-0.3-1.4-0.5
	c-0.1-0.2-0.2-0.3-0.2-0.5c-0.2,0-0.3,0-0.5,0c-0.2-0.2-0.3-0.5-0.5-0.7c-0.4-0.3-0.8-0.6-1.2-1c0-0.2,0-0.3,0-0.5
	c-0.2-0.1-0.3-0.2-0.5-0.2c0-0.2,0-0.3,0-0.5c-0.1,0-0.2,0-0.2,0c-0.2-0.5-0.3-1-0.5-1.4c-0.1,0-0.2,0-0.2,0
	c-0.3-0.7-0.8-3.7-0.5-4.8c0.1,0,0.2,0,0.2,0c0.1-0.6,0.2-1.3,0.2-1.9c0.1,0,0.2,0,0.2,0c0-0.2,0-0.3,0-0.5c0.1,0,0.2,0,0.2,0
	c0.2-0.5,0.3-1,0.5-1.4c0.2-0.1,0.3-0.2,0.5-0.2c0-0.2,0-0.3,0-0.5c0.5-0.4,1-0.8,1.4-1.2c0.1-0.2,0.2-0.3,0.2-0.5
	c0.2,0,0.3,0,0.5,0c0.1-0.2,0.2-0.3,0.2-0.5c0.2,0,0.3,0,0.5,0c0-0.1,0-0.2,0-0.2c0.5-0.2,1-0.3,1.4-0.5c0-0.1,0-0.2,0-0.2
	c0.2,0,0.5,0,0.7,0c0-0.1,0-0.2,0-0.2c0.4,0,0.8,0,1.2,0C186.2,155.2,186.2,155.1,186.2,155z"/>
<path class="st2" d="M221.5,155c4.8-0.1,7.2,1.3,9.1,4.1c0.2,0.1,0.3,0.2,0.5,0.2c0.2,0.5,0.3,1,0.5,1.4c0.1,0,0.2,0,0.2,0
	c0,0.2,0,0.3,0,0.5c0.1,0,0.2,0,0.2,0c0,0.2,0,0.5,0,0.7c0.6,1.6,0.6,3.6,0,5.3c0,0.2,0,0.5,0,0.7c-0.1,0-0.2,0-0.2,0
	c0,0.2,0,0.3,0,0.5c-0.1,0-0.2,0-0.2,0c-0.2,0.5-0.3,1-0.5,1.4c-0.2,0.1-0.3,0.2-0.5,0.2c0,0.2,0,0.3,0,0.5
	c-0.2,0.2-0.5,0.3-0.7,0.5c-0.3,0.4-0.6,0.8-1,1.2c-0.2,0-0.3,0-0.5,0c-0.1,0.2-0.2,0.3-0.2,0.5c-0.2,0-0.3,0-0.5,0
	c0,0.1,0,0.2,0,0.2c-0.5,0.2-1,0.3-1.4,0.5c0,0.1,0,0.2,0,0.2c-0.2,0-0.5,0-0.7,0c0,0.1,0,0.2,0,0.2c-0.4,0-0.8,0-1.2,0
	c0,0.1,0,0.2,0,0.2c-1.1,0.3-4.1-0.2-4.8-0.5c0-0.1,0-0.2,0-0.2c-0.2,0-0.3,0-0.5,0c0-0.1,0-0.2,0-0.2c-0.5-0.2-1-0.3-1.4-0.5
	c-0.1-0.2-0.2-0.3-0.2-0.5c-0.2,0-0.3,0-0.5,0c-0.2-0.2-0.3-0.5-0.5-0.7c-0.4-0.3-0.8-0.6-1.2-1c0-0.2,0-0.3,0-0.5
	c-0.2-0.1-0.3-0.2-0.5-0.2c0-0.2,0-0.3,0-0.5c-0.1,0-0.2,0-0.2,0c-0.2-0.5-0.3-1-0.5-1.4c-0.1,0-0.2,0-0.2,0
	c-0.3-0.7-0.8-3.7-0.5-4.8c0.1,0,0.2,0,0.2,0c0.1-0.6,0.2-1.3,0.2-1.9c0.1,0,0.2,0,0.2,0c0-0.2,0-0.3,0-0.5c0.1,0,0.2,0,0.2,0
	c0.2-0.5,0.3-1,0.5-1.4c0.2-0.1,0.3-0.2,0.5-0.2c0-0.2,0-0.3,0-0.5c0.5-0.4,1-0.8,1.4-1.2c0.1-0.2,0.2-0.3,0.2-0.5
	c0.2,0,0.3,0,0.5,0c0.1-0.2,0.2-0.3,0.2-0.5c0.2,0,0.3,0,0.5,0c0-0.1,0-0.2,0-0.2c0.5-0.2,1-0.3,1.4-0.5c0-0.1,0-0.2,0-0.2
	c0.2,0,0.5,0,0.7,0c0-0.1,0-0.2,0-0.2c0.4,0,0.8,0,1.2,0C221.5,155.2,221.5,155.1,221.5,155z"/>
<path class="st2" d="M107.3,175.7c6.5,0,13,0,19.4,0c0,1.2,0,2.4,0,3.6c-6.5,0-13,0-19.4,0C107.3,178.1,107.3,176.9,107.3,175.7z"/>
<path class="st2" d="M142.8,175.7c6.5,0,13,0,19.4,0c0,1.2,0,2.4,0,3.6c-6.5,0-13,0-19.4,0C142.8,178.1,142.8,176.9,142.8,175.7z"/>
<path class="st2" d="M142.3,210c6.5,0,13,0,19.4,0c0,1.2,0,2.4,0,3.6c-6.5,0-13,0-19.4,0C142.3,212.4,142.3,211.2,142.3,210z"/>
<path class="st2" d="M107.3,210c6.5,0,13,0,19.4,0c0,1.2,0,2.4,0,3.6c-6.5,0-13,0-19.4,0C107.3,212.4,107.3,211.2,107.3,210z"/>
<path class="st2" d="M213.4,175.7c6.5,0,13,0,19.4,0c0,1.2,0,2.4,0,3.6c-6.5,0-13,0-19.4,0C213.4,178.1,213.4,176.9,213.4,175.7z"/>
<path class="st2" d="M115.4,188.6c4.8-0.1,7.2,1.3,9.1,4.1c0.2,0.1,0.3,0.2,0.5,0.2c0.2,0.5,0.3,1,0.5,1.4c0.1,0,0.2,0,0.2,0
	c0,0.2,0,0.3,0,0.5c0.1,0,0.2,0,0.2,0c0,0.2,0,0.5,0,0.7c0.6,1.6,0.6,3.6,0,5.3c0,0.2,0,0.5,0,0.7c-0.1,0-0.2,0-0.2,0
	c0,0.2,0,0.3,0,0.5c-0.1,0-0.2,0-0.2,0c-0.2,0.5-0.3,1-0.5,1.4c-0.2,0.1-0.3,0.2-0.5,0.2c0,0.2,0,0.3,0,0.5
	c-0.2,0.2-0.5,0.3-0.7,0.5c-0.3,0.4-0.6,0.8-1,1.2c-0.2,0-0.3,0-0.5,0c-0.1,0.2-0.2,0.3-0.2,0.5c-0.2,0-0.3,0-0.5,0
	c0,0.1,0,0.2,0,0.2c-0.5,0.2-1,0.3-1.4,0.5c0,0.1,0,0.2,0,0.2c-0.2,0-0.5,0-0.7,0c0,0.1,0,0.2,0,0.2c-0.4,0-0.8,0-1.2,0
	c0,0.1,0,0.2,0,0.2c-1.1,0.3-4.1-0.2-4.8-0.5c0-0.1,0-0.2,0-0.2c-0.2,0-0.3,0-0.5,0c0-0.1,0-0.2,0-0.2c-0.5-0.2-1-0.3-1.4-0.5
	c-0.1-0.2-0.2-0.3-0.2-0.5c-0.2,0-0.3,0-0.5,0c-0.2-0.2-0.3-0.5-0.5-0.7c-0.4-0.3-0.8-0.6-1.2-1c0-0.2,0-0.3,0-0.5
	c-0.2-0.1-0.3-0.2-0.5-0.2c0-0.2,0-0.3,0-0.5c-0.1,0-0.2,0-0.2,0c-0.2-0.5-0.3-1-0.5-1.4c-0.1,0-0.2,0-0.2,0
	c-0.3-0.7-0.8-3.7-0.5-4.8c0.1,0,0.2,0,0.2,0c0.1-0.6,0.2-1.3,0.2-1.9c0.1,0,0.2,0,0.2,0c0-0.2,0-0.3,0-0.5c0.1,0,0.2,0,0.2,0
	c0.2-0.5,0.3-1,0.5-1.4c0.2-0.1,0.3-0.2,0.5-0.2c0-0.2,0-0.3,0-0.5c0.5-0.4,1-0.8,1.4-1.2c0.1-0.2,0.2-0.3,0.2-0.5
	c0.2,0,0.3,0,0.5,0c0.1-0.2,0.2-0.3,0.2-0.5c0.2,0,0.3,0,0.5,0c0-0.1,0-0.2,0-0.2c0.5-0.2,1-0.3,1.4-0.5c0-0.1,0-0.2,0-0.2
	c0.2,0,0.5,0,0.7,0c0-0.1,0-0.2,0-0.2c0.4,0,0.8,0,1.2,0C115.4,188.8,115.4,188.7,115.4,188.6z"/>
<path class="st2" d="M150.7,188.6c4.8-0.1,7.2,1.3,9.1,4.1c0.2,0.1,0.3,0.2,0.5,0.2c0.2,0.5,0.3,1,0.5,1.4c0.1,0,0.2,0,0.2,0
	c0,0.2,0,0.3,0,0.5c0.1,0,0.2,0,0.2,0c0,0.2,0,0.5,0,0.7c0.6,1.6,0.6,3.6,0,5.3c0,0.2,0,0.5,0,0.7c-0.1,0-0.2,0-0.2,0
	c0,0.2,0,0.3,0,0.5c-0.1,0-0.2,0-0.2,0c-0.2,0.5-0.3,1-0.5,1.4c-0.2,0.1-0.3,0.2-0.5,0.2c0,0.2,0,0.3,0,0.5
	c-0.2,0.2-0.5,0.3-0.7,0.5c-0.3,0.4-0.6,0.8-1,1.2c-0.2,0-0.3,0-0.5,0c-0.1,0.2-0.2,0.3-0.2,0.5c-0.2,0-0.3,0-0.5,0
	c0,0.1,0,0.2,0,0.2c-0.5,0.2-1,0.3-1.4,0.5c0,0.1,0,0.2,0,0.2c-0.2,0-0.5,0-0.7,0c0,0.1,0,0.2,0,0.2c-0.4,0-0.8,0-1.2,0
	c0,0.1,0,0.2,0,0.2c-1.1,0.3-4.1-0.2-4.8-0.5c0-0.1,0-0.2,0-0.2c-0.2,0-0.3,0-0.5,0c0-0.1,0-0.2,0-0.2c-0.5-0.2-1-0.3-1.4-0.5
	c-0.1-0.2-0.2-0.3-0.2-0.5c-0.2,0-0.3,0-0.5,0c-0.2-0.2-0.3-0.5-0.5-0.7c-0.4-0.3-0.8-0.6-1.2-1c0-0.2,0-0.3,0-0.5
	c-0.2-0.1-0.3-0.2-0.5-0.2c0-0.2,0-0.3,0-0.5c-0.1,0-0.2,0-0.2,0c-0.2-0.5-0.3-1-0.5-1.4c-0.1,0-0.2,0-0.2,0
	c-0.3-0.7-0.8-3.7-0.5-4.8c0.1,0,0.2,0,0.2,0c0.1-0.6,0.2-1.3,0.2-1.9c0.1,0,0.2,0,0.2,0c0-0.2,0-0.3,0-0.5c0.1,0,0.2,0,0.2,0
	c0.2-0.5,0.3-1,0.5-1.4c0.2-0.1,0.3-0.2,0.5-0.2c0-0.2,0-0.3,0-0.5c0.5-0.4,1-0.8,1.4-1.2c0.1-0.2,0.2-0.3,0.2-0.5
	c0.2,0,0.3,0,0.5,0c0.1-0.2,0.2-0.3,0.2-0.5c0.2,0,0.3,0,0.5,0c0-0.1,0-0.2,0-0.2c0.5-0.2,1-0.3,1.4-0.5c0-0.1,0-0.2,0-0.2
	c0.2,0,0.5,0,0.7,0c0-0.1,0-0.2,0-0.2c0.4,0,0.8,0,1.2,0C150.7,188.8,150.7,188.7,150.7,188.6z"/>
<path class="st2" d="M186,188.6c4.8-0.1,7.2,1.3,9.1,4.1c0.2,0.1,0.3,0.2,0.5,0.2c0.2,0.5,0.3,1,0.5,1.4c0.1,0,0.2,0,0.2,0
	c0,0.2,0,0.3,0,0.5c0.1,0,0.2,0,0.2,0c0,0.2,0,0.5,0,0.7c0.6,1.6,0.6,3.6,0,5.3c0,0.2,0,0.5,0,0.7c-0.1,0-0.2,0-0.2,0
	c0,0.2,0,0.3,0,0.5c-0.1,0-0.2,0-0.2,0c-0.2,0.5-0.3,1-0.5,1.4c-0.2,0.1-0.3,0.2-0.5,0.2c0,0.2,0,0.3,0,0.5
	c-0.2,0.2-0.5,0.3-0.7,0.5c-0.3,0.4-0.6,0.8-1,1.2c-0.2,0-0.3,0-0.5,0c-0.1,0.2-0.2,0.3-0.2,0.5c-0.2,0-0.3,0-0.5,0
	c0,0.1,0,0.2,0,0.2c-0.5,0.2-1,0.3-1.4,0.5c0,0.1,0,0.2,0,0.2c-0.2,0-0.5,0-0.7,0c0,0.1,0,0.2,0,0.2c-0.4,0-0.8,0-1.2,0
	c0,0.1,0,0.2,0,0.2c-1.1,0.3-4.1-0.2-4.8-0.5c0-0.1,0-0.2,0-0.2c-0.2,0-0.3,0-0.5,0c0-0.1,0-0.2,0-0.2c-0.5-0.2-1-0.3-1.4-0.5
	c-0.1-0.2-0.2-0.3-0.2-0.5c-0.2,0-0.3,0-0.5,0c-0.2-0.2-0.3-0.5-0.5-0.7c-0.4-0.3-0.8-0.6-1.2-1c0-0.2,0-0.3,0-0.5
	c-0.2-0.1-0.3-0.2-0.5-0.2c0-0.2,0-0.3,0-0.5c-0.1,0-0.2,0-0.2,0c-0.2-0.5-0.3-1-0.5-1.4c-0.1,0-0.2,0-0.2,0
	c-0.3-0.7-0.8-3.7-0.5-4.8c0.1,0,0.2,0,0.2,0c0.1-0.6,0.2-1.3,0.2-1.9c0.1,0,0.2,0,0.2,0c0-0.2,0-0.3,0-0.5c0.1,0,0.2,0,0.2,0
	c0.2-0.5,0.3-1,0.5-1.4c0.2-0.1,0.3-0.2,0.5-0.2c0-0.2,0-0.3,0-0.5c0.5-0.4,1-0.8,1.4-1.2c0.1-0.2,0.2-0.3,0.2-0.5
	c0.2,0,0.3,0,0.5,0c0.1-0.2,0.2-0.3,0.2-0.5c0.2,0,0.3,0,0.5,0c0-0.1,0-0.2,0-0.2c0.5-0.2,1-0.3,1.4-0.5c0-0.1,0-0.2,0-0.2
	c0.2,0,0.5,0,0.7,0c0-0.1,0-0.2,0-0.2c0.4,0,0.8,0,1.2,0C186,188.8,186,188.7,186,188.6z"/>
<path class="st2" d="M221.3,188.6c4.8-0.1,7.2,1.3,9.1,4.1c0.2,0.1,0.3,0.2,0.5,0.2c0.2,0.5,0.3,1,0.5,1.4c0.1,0,0.2,0,0.2,0
	c0,0.2,0,0.3,0,0.5c0.1,0,0.2,0,0.2,0c0,0.2,0,0.5,0,0.7c0.6,1.6,0.6,3.6,0,5.3c0,0.2,0,0.5,0,0.7c-0.1,0-0.2,0-0.2,0
	c0,0.2,0,0.3,0,0.5c-0.1,0-0.2,0-0.2,0c-0.2,0.5-0.3,1-0.5,1.4c-0.2,0.1-0.3,0.2-0.5,0.2c0,0.2,0,0.3,0,0.5
	c-0.2,0.2-0.5,0.3-0.7,0.5c-0.3,0.4-0.6,0.8-1,1.2c-0.2,0-0.3,0-0.5,0c-0.1,0.2-0.2,0.3-0.2,0.5c-0.2,0-0.3,0-0.5,0
	c0,0.1,0,0.2,0,0.2c-0.5,0.2-1,0.3-1.4,0.5c0,0.1,0,0.2,0,0.2c-0.2,0-0.5,0-0.7,0c0,0.1,0,0.2,0,0.2c-0.4,0-0.8,0-1.2,0
	c0,0.1,0,0.2,0,0.2c-1.1,0.3-4.1-0.2-4.8-0.5c0-0.1,0-0.2,0-0.2c-0.2,0-0.3,0-0.5,0c0-0.1,0-0.2,0-0.2c-0.5-0.2-1-0.3-1.4-0.5
	c-0.1-0.2-0.2-0.3-0.2-0.5c-0.2,0-0.3,0-0.5,0c-0.2-0.2-0.3-0.5-0.5-0.7c-0.4-0.3-0.8-0.6-1.2-1c0-0.2,0-0.3,0-0.5
	c-0.2-0.1-0.3-0.2-0.5-0.2c0-0.2,0-0.3,0-0.5c-0.1,0-0.2,0-0.2,0c-0.2-0.5-0.3-1-0.5-1.4c-0.1,0-0.2,0-0.2,0
	c-0.3-0.7-0.8-3.7-0.5-4.8c0.1,0,0.2,0,0.2,0c0.1-0.6,0.2-1.3,0.2-1.9c0.1,0,0.2,0,0.2,0c0-0.2,0-0.3,0-0.5c0.1,0,0.2,0,0.2,0
	c0.2-0.5,0.3-1,0.5-1.4c0.2-0.1,0.3-0.2,0.5-0.2c0-0.2,0-0.3,0-0.5c0.5-0.4,1-0.8,1.4-1.2c0.1-0.2,0.2-0.3,0.2-0.5
	c0.2,0,0.3,0,0.5,0c0.1-0.2,0.2-0.3,0.2-0.5c0.2,0,0.3,0,0.5,0c0-0.1,0-0.2,0-0.2c0.5-0.2,1-0.3,1.4-0.5c0-0.1,0-0.2,0-0.2
	c0.2,0,0.5,0,0.7,0c0-0.1,0-0.2,0-0.2c0.4,0,0.8,0,1.2,0C221.3,188.8,221.3,188.7,221.3,188.6z"/>
<path class="st2" d="M178.1,210c6.5,0,13,0,19.4,0c0,1.2,0,2.4,0,3.6c-6.5,0-13,0-19.4,0C178.1,212.4,178.1,211.2,178.1,210z"/>
<path class="st2" d="M213.4,210c6.5,0,13,0,19.4,0c0,1.2,0,2.4,0,3.6c-6.5,0-13,0-19.4,0C213.4,212.4,213.4,211.2,213.4,210z"/>
<path class="st3" d="M138,114.7c15.7,0,31.4,0,47,0c6,0,15.3-1.1,19,1.4c1,3.5,0.7,9.5-1,11.8c-4.1,1.1-10.6,0.5-15.6,0.5
	c-11.2,0-22.4,0-33.6,0c-5.7,0-14.3,1-17.8-1.4C134.8,122.5,135.4,116.8,138,114.7z"/>
</svg>
